# xmcd
#
# Track frame offsets:
#	150
#	13146
#	26540
#	49369
#	70010
#	87212
#	103378
#	117855
#	137951
#	153888
#	171741
#
# Disc length: 2520 seconds
#
# Revision: 1
# Processed by: cddbd v1.5.2PL0 Copyright (c) Steve Scherf et al.
# Submitted via: audiograbber 1.83.01
#
DISCID=9909d60b
DTITLE=Various Artist - The Music Inside - A Collaboration Dedicated to Waylon
DTITLE=Jennings Vol I
DYEAR=2011
DGENRE=Country
TTITLE0=Jamey Johnson - This Time
TTITLE1=Alabama - Are You Sure Hank Done It This Way
TTITLE2=Randy Houser - I'm A Ramblin' Man
TTITLE3=Shooter Jennings - Belle Of The Ball
TTITLE4=Jessi Colter - Good Hearted Woman
TTITLE5=James Otto - Don't You Think This Outlaw Bit's Done Got Out Of Hand
TTITLE6=John Hiatt - Just To Satisfy You
TTITLE7=Patty Griffin - Rose In Paradise
TTITLE8=Trace Adkins - You Asked Me To
TTITLE9=Waylon Jennings - Go Down Rockin'
TTITLE10=Chanel Campbell - The Wurlitzer Prize (I Don't Want To Get Over You)
EXTD=
EXTT0=
EXTT1=
EXTT2=
EXTT3=
EXTT4=
EXTT5=
EXTT6=
EXTT7=
EXTT8=
EXTT9=
EXTT10=
PLAYORDER=
